<svg xmlns="http://www.w3.org/2000/svg" width="1280" height="720" viewBox="0 0 1280 720">
<defs><pattern id="grid" width="48" height="48" patternUnits="userSpaceOnUse"><path d="M48 0H0V48" fill="none" stroke="#102033" stroke-width="1"/></pattern></defs>
<rect width="1280" height="720" fill="#020617"/><rect width="1280" height="720" fill="url(#grid)"/>
<rect x="70" y="70" width="1140" height="580" rx="28" fill="#07111f" stroke="#22d3ee" stroke-width="3"/>
<text x="130" y="145" font-family="DejaVu Sans, Arial" font-size="25" font-weight="700" fill="#67e8f9" letter-spacing="4">OPERATOR CUT</text>
<text x="130" y="265" font-family="DejaVu Sans, Arial" font-size="72" font-weight="700" fill="#f8fafc">The Good Parts</text>
<text x="130" y="345" font-family="DejaVu Sans, Arial" font-size="72" font-weight="700" fill="#f8fafc">of SuiteDash</text>
<text x="130" y="405" font-family="DejaVu Sans, Arial" font-size="30" fill="#cbd5e1">Configure the 20% that creates 80% of client-ops value.</text>
<g font-family="DejaVu Sans, Arial" font-size="19" font-weight="700" fill="#d1fae5" text-anchor="middle">
<rect x="130" y="510" width="130" height="68" rx="12" fill="#064e3b" stroke="#34d399" stroke-width="2"/><text x="195" y="552">CRM</text><path d="M260 544H276" stroke="#22d3ee" stroke-width="4"/><rect x="276" y="510" width="130" height="68" rx="12" fill="#064e3b" stroke="#34d399" stroke-width="2"/><text x="341" y="552">Intake</text><path d="M406 544H422" stroke="#22d3ee" stroke-width="4"/><rect x="422" y="510" width="130" height="68" rx="12" fill="#064e3b" stroke="#34d399" stroke-width="2"/><text x="487" y="552">Portal</text><path d="M552 544H568" stroke="#22d3ee" stroke-width="4"/><rect x="568" y="510" width="130" height="68" rx="12" fill="#064e3b" stroke="#34d399" stroke-width="2"/><text x="633" y="552">Projects</text><path d="M698 544H714" stroke="#22d3ee" stroke-width="4"/><rect x="714" y="510" width="130" height="68" rx="12" fill="#064e3b" stroke="#34d399" stroke-width="2"/><text x="779" y="552">Files</text><path d="M844 544H860" stroke="#22d3ee" stroke-width="4"/><rect x="860" y="510" width="130" height="68" rx="12" fill="#064e3b" stroke="#34d399" stroke-width="2"/><text x="925" y="552">Billing</text><path d="M990 544H1006" stroke="#22d3ee" stroke-width="4"/><rect x="1006" y="510" width="130" height="68" rx="12" fill="#064e3b" stroke="#34d399" stroke-width="2"/><text x="1071" y="552">Automation</text></g><text x="130" y="620" font-family="DejaVu Sans, Arial" font-size="24" font-weight="700" fill="#fbbf24">PDF + 3 bonuses • Founding $29 / Public $49</text></svg>